<?xml version="1.0" encoding="UTF-8"?> <!-- Generator: Adobe Illustrator 21.0.0, SVG Export Plug-In . SVG Version: 6.00 Build 0) --> <svg xmlns="http://www.w3.org/2000/svg" xmlns:xlink="http://www.w3.org/1999/xlink" id="Layer_1" x="0px" y="0px" viewBox="0 0 100.353 100.353" style="enable-background:new 0 0 100.353 100.353;" xml:space="preserve"> <g> <path style="fill:#231F20;" d="M28.312,39.764c0.293,0.292,0.677,0.439,1.061,0.439s0.768-0.146,1.061-0.439l1.913-1.913 l1.913,1.913c0.293,0.293,0.677,0.439,1.061,0.439s0.768-0.146,1.061-0.439c0.586-0.586,0.586-1.536,0-2.122l-1.913-1.914 l1.913-1.914c0.586-0.586,0.586-1.536,0-2.122c-0.586-0.585-1.535-0.585-2.121,0l-1.913,1.913l-1.913-1.913 c-0.586-0.586-1.535-0.585-2.121,0c-0.586,0.586-0.586,1.536,0,2.122l1.913,1.914l-1.913,1.914 C27.726,38.228,27.726,39.178,28.312,39.764z"></path> <path style="fill:#231F20;" d="M89.763,36.138c-0.243,0-0.481,0.019-0.719,0.036V20.271c0-0.829-0.672-1.5-1.5-1.5H50.298H13.052 c-0.828,0-1.5,0.671-1.5,1.5v15.968c-0.431-0.06-0.867-0.101-1.314-0.101c-5.275,0-9.567,4.291-9.567,9.565 c0,4.244,2.879,7.969,6.88,9.146v19.305c0,3.9,2.665,7.074,5.941,7.074c0.068,0,0.135-0.009,0.203-0.011 c0.038,0.003,0.075,0.011,0.114,0.011h72.705c3.274,0,5.938-3.173,5.938-7.074V54.849c4.001-1.177,6.88-4.902,6.88-9.146 C99.331,40.429,95.039,36.138,89.763,36.138z M86.044,36.892c-3.43,1.454-5.842,4.857-5.842,8.812c0,0.198-0.015,0.559-0.032,0.997 c-0.084,2.117-0.102,3.291,0.031,3.997l-0.019,4.548H51.797V21.773h34.246L86.044,36.892L86.044,36.892z M19.9,74.314 l-0.068-16.069h60.339l-0.066,16.076c0,1.438,0.436,2.788,1.165,3.908H18.733C19.464,77.106,19.9,75.755,19.9,74.314z M14.552,21.772h34.246v33.473H19.819L19.8,50.697c0.132-0.706,0.115-1.879,0.031-3.996c-0.018-0.438-0.032-0.799-0.032-0.997 c0-3.72-2.139-6.943-5.247-8.524V21.772z M10.55,74.154V53.647c0-0.743-0.544-1.375-1.279-1.484 c-3.193-0.474-5.601-3.251-5.601-6.46c0-3.62,2.946-6.565,6.567-6.565c0.782,0,1.53,0.145,2.226,0.397 c0.006,0.003,0.012,0.004,0.018,0.007c2.514,0.92,4.317,3.331,4.317,6.161c0,0.221,0.016,0.625,0.034,1.115 c0.034,0.855,0.113,2.857,0.029,3.284c-0.043,0.142-0.064,0.289-0.063,0.437l0.101,23.781c0,2.237-1.8,3.908-3.408,3.908 C11.897,78.228,10.55,76.362,10.55,74.154z M90.731,52.163c-0.735,0.109-1.279,0.741-1.279,1.484v20.507 c0,2.208-1.346,4.074-2.938,4.074c-1.612,0-3.408-1.605-3.408-3.902l0.098-23.787c0.001-0.149-0.011-0.258-0.054-0.4 c-0.095-0.465-0.015-2.466,0.019-3.32c0.02-0.49,0.035-0.895,0.035-1.116c0-2.932,1.931-5.42,4.587-6.26 c0.097-0.016,0.191-0.041,0.281-0.075c0.541-0.145,1.106-0.23,1.692-0.23c3.622,0,6.568,2.945,6.568,6.565 C96.331,48.912,93.924,51.689,90.731,52.163z"></path> <path style="fill:#231F20;" d="M66.379,35.729l-1.913,1.914c-0.586,0.586-0.586,1.536,0,2.122c0.293,0.292,0.677,0.439,1.061,0.439 s0.768-0.146,1.061-0.439l1.913-1.913l1.913,1.913c0.293,0.293,0.677,0.439,1.061,0.439s0.768-0.146,1.061-0.439 c0.586-0.586,0.586-1.536,0-2.122l-1.913-1.914l1.913-1.914c0.586-0.586,0.586-1.536,0-2.122c-0.586-0.585-1.535-0.585-2.121,0 l-1.913,1.913l-1.913-1.913c-0.586-0.586-1.535-0.585-2.121,0c-0.586,0.586-0.586,1.536,0,2.122L66.379,35.729z"></path> </g> </svg> 