<!-- icon666.com - MILLIONS vector ICONS FREE --><svg id="Layer_1" viewBox="0 0 512 512" xmlns="http://www.w3.org/2000/svg" data-name="Layer 1"><path d="m420 482h-328c-33.791 0-62-28.209-62-62v-44h12v44c0 27.248 22.753 50 50 50h328c27.253 0 50-22.747 50-50v-328c0-27.259-22.742-50-50-50h-52v-12h52c33.791 0 62 28.209 62 62v328c0 33.791-28.209 62-62 62zm-378-114h-12v-12h12zm0-20h-12v-256c0-33.791 28.209-62 62-62h268v12h-268c-27.253 0-50 22.746-50 50z"></path><path d="m369.577 354.629c-11.049 0-23.08-.964-29.9-3.716-5.779-2.261-13.25-9.754-24.86-21.823-6.241-6.487-15.5-16.113-19.187-18.013-5.677 2.223-6.644 14.817-7.292 23.273-.65 8.477-1.079 14.078-5.853 16.4-11.054 5.159-41.946 2.157-42.251 2.124-.119-.012-.236-.028-.352-.047-47.786-7.96-75.846-38.513-103.276-81.939-48.356-75.541-45.336-88.162-44.344-92.31a9.509 9.509 0 0 1 4.425-6.216c.042-.024.084-.049.127-.072 8.972-4.987 29.259-4.544 52.752-4.029 2.49.054 5 .109 7.51.158h.134c7.164.3 12.877 9.18 30.567 47.516 3.61 7.82 7.018 15.207 8.562 17.649 10 15.983 14.623 15.547 14.679 15.534 1.375-.28 3.349-4.573 3.776-7.011 2.356-24.831 1.585-41.547-2.289-49.687-2.321-4.878-4.926-5.146-9.241-5.59-.7-.072-1.386-.143-2.038-.232a6 6 0 0 1 -4.9-7.8c7.928-24.364 55.222-21.523 60.588-21.119a6.054 6.054 0 0 1 .975.155c1.726.422 16.938 4.226 23.54 8.758 5.365 3.389 7.695 12.1 7.548 28.155v.131c-.086 2.789-.2 5.686-.307 8.632-.388 10.256-.789 20.861-.331 29.593.543 10.364 2.143 13.621 2.741 14.492 2.511-.662 11.574-8.231 26.839-37.006 3.077-5.9 5.976-11.866 8.533-17.128 7.848-16.147 10.531-21.331 14.741-22.935 3.6-1.409 11.147-1.673 28.8-1.974 2.427-.042 4.9-.084 7.38-.134h.122c19.887 0 32.357.208 37.877 4.295.119.088.236.181.349.279 11.939 10.3-2.29 32.715-17.889 54.794-3.247 4.729-7.5 9.943-11.617 14.986-6.854 8.4-17.212 21.093-16.642 25.922 0 .042.009.085.013.127.365 3.8 10.614 13.71 18.1 20.947 16.056 15.527 34.253 33.125 31.44 50.316-2.227 14.17-19.014 14.232-33.825 14.287-2.527.009-5.141.019-7.629.091-2.572.105-5.304.167-8.095.167zm-73.849-55.714c6.1 0 12.962 6.5 27.737 21.856 7.105 7.385 16.836 17.5 20.645 18.991 5.461 2.2 19.063 3.305 33.125 2.7 2.721-.079 5.413-.089 8.015-.1 9.523-.035 21.375-.079 22.022-4.188 1.8-11.03-14.686-26.976-27.935-39.789-11.651-11.267-20.86-20.173-21.693-28.356-1.118-9.867 8.331-21.448 19.269-34.853 4.144-5.077 8.057-9.873 11.07-14.258 5.669-8.026 12.65-18.259 16.749-26.8 4.018-8.376 3.449-11.27 3.213-11.9-3.986-1.8-20.412-1.8-30.392-1.8-2.47.05-4.939.093-7.359.134-8.649.147-20.249.345-23.98 1.016-1.857 2.507-5.772 10.563-8.969 17.14-2.592 5.333-5.53 11.379-8.7 17.468-4.375 8.248-10.992 19.906-17.785 28.824-7.6 9.972-13.944 14.641-19.928 14.641-.107 0-.215 0-.323 0a10.87 10.87 0 0 1 -7.86-3.456c-7.138-7.413-7-25.846-5.966-53.122.109-2.9.217-5.741.3-8.483.12-13.715-1.825-17.392-2.24-18.019l-.052-.036c-3.422-2.408-13.349-5.452-19.161-6.908-9.488-.635-32.575-.248-42.994 6.969 3.849 1.51 7.857 4.486 10.807 10.685 4.967 10.434 6.041 28.286 3.381 56.18-.01.106-.023.211-.038.316-.023.148-2.338 14.841-13.216 17.107-11.278 2.35-20.973-10.8-27.286-20.894-1.95-3.085-5.194-10.112-9.3-19.009-5.46-11.832-16.6-35.972-21.342-40.575-2.085-.042-4.168-.088-6.237-.133-17.9-.391-38.045-.832-45.444 1.967.029 3.746 3.294 20.4 42.874 82.224 25.691 40.674 51.665 69.237 94.944 76.511 9.975 1.042 27.209 1.273 33.993-.48.3-1.761.525-4.729.7-7.044.953-12.426 2.394-31.2 17.716-34.36a8.674 8.674 0 0 1 1.64-.166z"></path></svg>